<svg width="99" height="70" viewBox="0 0 99 70" fill="none" xmlns="http://www.w3.org/2000/svg">
<path fill-rule="evenodd" clip-rule="evenodd" d="M53.4227 26.4948C53.4149 26.488 53.4101 26.4837 53.4064 26.4805C53.4131 26.4865 53.4227 26.4948 53.4227 26.4948ZM83.8691 23.7724C83.8907 23.765 83.884 23.7673 83.8691 23.7724V23.7724ZM29.6463 10.6684L32.2028 10.4353C32.687 10.3911 33.0127 10.0453 33.0127 9.57496V8.39531C33.0127 8.0167 32.7618 7.65756 32.2028 7.70863L29.6463 7.94163C29.0872 7.99259 28.837 8.39742 28.837 8.77604V9.95569C28.837 10.4261 29.1622 10.7125 29.6463 10.6684ZM77.4162 20.757C78.3131 21.4503 79.4166 21.7445 80.6966 21.6278C82.4696 21.4662 83.8126 21.1704 84.8104 20.7246C85.1554 20.5664 85.354 20.2743 85.354 19.9226V18.9084C85.355 18.2452 84.8057 18.09 84.4169 18.2235C83.4765 18.537 82.2605 18.7584 80.6966 18.9009C80.2692 18.9398 79.9031 18.8227 79.6079 18.5491C79.3117 18.2741 79.161 17.9273 79.161 17.5143V12.608C79.161 12.197 79.3117 11.8209 79.6075 11.4937C79.9042 11.1665 80.2703 10.9822 80.6967 10.9434C82.2587 10.801 83.5094 10.8009 84.4111 10.9419C84.8549 11.0136 85.3541 10.745 85.3541 10.0871V9.07263C85.3541 8.73919 85.1767 8.48702 84.8332 8.36731C83.8421 8.10304 82.4887 8.05323 80.6967 8.21664C79.4179 8.33319 78.3045 8.83742 77.3894 9.71384C76.4894 10.5725 76.0131 11.6739 76.0131 12.8949V17.8012C76.013 19.0424 76.4846 20.0357 77.4162 20.757ZM36.1845 25.6855L37.7133 25.5462C38.1973 25.502 38.5231 25.1558 38.5231 24.6858V16.29C38.5231 15.897 38.6771 15.517 38.9705 15.1742C39.2653 14.8487 39.6314 14.6645 40.0593 14.6254L42.1149 14.4381C42.5267 14.4006 42.8801 14.5225 43.1765 14.8132C43.474 15.088 43.6234 15.4291 43.6234 15.8252V24.2209C43.6234 24.691 43.9502 24.9777 44.4343 24.9336L45.9888 24.7918C46.0658 24.7848 46.1403 24.7605 46.2108 24.7229C46.6741 24.474 46.7719 24.1572 46.7719 23.934V15.5382C46.7719 15.1436 46.9257 14.7637 47.2198 14.4222C47.5147 14.0967 47.8807 13.9125 48.3082 13.8736L50.3632 13.6863C50.7789 13.6484 51.1355 13.7701 51.4519 14.0589C51.7496 14.3337 51.8995 14.6747 51.8995 15.0708V23.4666C51.8995 23.9366 52.2255 24.2234 52.7097 24.1793L54.2374 24.0401C54.7215 23.9959 55.0473 23.6497 55.0473 23.1797V14.7839C55.0473 13.5338 54.573 12.5468 53.6446 11.8546C52.7464 11.158 51.6416 10.8655 50.3631 10.982L48.3081 11.1693C47.0965 11.2798 46.0534 11.7184 45.1979 12.4751C44.3463 11.874 43.3111 11.6248 42.1149 11.7339L40.0593 11.9213C38.7922 12.0367 37.6816 12.5295 36.7516 13.3944C35.8515 14.2534 35.3752 15.3542 35.3752 16.577V24.9728C35.3751 25.4429 35.7005 25.7296 36.1845 25.6855ZM53.4588 26.5258C53.6001 26.6597 53.7444 26.8359 53.8922 27.0548C54.0399 27.2739 54.1927 27.5023 54.3502 27.7402L59.9743 35.8361V27.1938C59.9743 26.6323 60.0941 26.201 60.3337 25.9001C60.3401 25.8923 60.3471 25.8855 60.3535 25.8778L53.4227 26.4948C53.4346 26.5054 53.4472 26.5149 53.4588 26.5258ZM31.7024 12.6831L30.1474 12.8249C29.5882 12.8759 29.3375 13.2821 29.3375 13.6611V25.5233C29.3375 25.9933 29.6633 26.2801 30.1474 26.236L31.7024 26.0943C32.186 26.0501 32.5116 25.704 32.5116 25.2338V13.3717C32.5116 12.9927 32.2615 12.632 31.7024 12.6831ZM56.6176 11.4202C56.7993 11.32 56.9495 11.1835 57.0707 11.0285L60.1628 14.2351L58.3186 14.8632C58.2598 14.6831 58.154 14.521 57.9981 14.4002C57.5418 14.0467 56.8563 14.1593 56.4632 14.6528C56.0713 15.1462 56.1215 15.8328 56.5771 16.1865C57.032 16.5398 57.7198 16.4256 58.1107 15.9327C58.2188 15.7976 58.2902 15.6483 58.3312 15.4937L60.1816 16.3611C60.1814 16.3981 60.176 16.4342 60.176 16.471C60.176 20.4576 63.3874 23.3968 67.3488 23.0356C71.3106 22.6745 74.5224 19.1498 74.5224 15.1632C74.5224 11.1767 71.3105 8.2378 67.3488 8.59894C65.8641 8.73434 64.4843 9.31427 63.3402 10.1967L61.7775 9.10696C61.8928 8.92534 61.9673 8.71655 61.9783 8.49334C62.0088 7.84866 61.5161 7.34654 60.8764 7.37233C60.2386 7.40055 59.6954 7.94668 59.6642 8.59273C59.6341 9.2373 60.1267 9.73942 60.7655 9.71131C60.94 9.70457 61.106 9.65572 61.2583 9.57928L61.5999 11.7385L57.3742 10.295C57.4022 10.0581 57.3711 9.8166 57.2668 9.59728C56.9621 8.95745 56.1771 8.73634 55.5135 9.10275C54.8503 9.46915 54.5597 10.2862 54.8647 10.9259C55.1687 11.5658 55.9555 11.7877 56.6176 11.4202ZM68.9411 18.2775C69.4671 18.2295 69.8918 18.6211 69.8918 19.148C69.8918 19.677 69.4671 20.1445 68.9411 20.1925C68.4151 20.2404 67.9902 19.8504 67.9902 19.3214C67.9903 18.7944 68.4151 18.3255 68.9411 18.2775ZM65.6329 18.5791C66.1593 18.5311 66.5847 18.9226 66.5847 19.4494C66.5847 19.9784 66.1594 20.446 65.6329 20.494C65.107 20.542 64.6822 20.1518 64.6822 19.6229C64.6822 19.096 65.1069 18.6269 65.6329 18.5791ZM72.9128 24.7566C72.8883 24.7557 72.8775 24.7553 72.8742 24.7552C72.8795 24.7554 72.8971 24.756 72.9128 24.7566ZM70.7395 27.1911L68.809 27.3515V37.2132L71.0251 37.0291C71.5108 36.9886 71.8918 36.9438 72.1676 36.8945C72.4433 36.8451 72.729 36.7553 73.0244 36.625C73.3199 36.4948 73.576 36.3249 73.7928 36.1152C74.7711 35.2013 75.2603 33.7269 75.2603 31.6918C75.2603 30.2581 75.045 29.2022 74.6152 28.5243C74.185 27.8465 73.6548 27.4364 73.0244 27.2937C72.3943 27.1512 71.6323 27.1169 70.7395 27.1911ZM39.4778 36.3104L43.7918 35.9519L41.615 30.1366L39.4778 36.3104ZM91.2817 26.3299C91.1414 26.3299 91.1364 26.4305 91.1364 26.4305C91.1365 26.4429 91.1375 26.4552 91.1375 26.4676C91.1375 26.8179 91.0143 27.1436 90.7681 27.4448C90.5219 27.7462 90.2149 27.9121 89.8472 27.9426C89.5123 27.9704 89.2577 27.9073 89.0839 27.7532C88.9098 27.5992 88.721 27.3391 88.5175 26.9727C88.2548 26.4462 87.9396 26.0446 87.5719 25.7678C87.2041 25.4912 86.6132 25.3865 85.799 25.4542C85.0438 25.5171 84.4349 25.7346 83.972 26.1065C83.509 26.4788 83.2775 26.8993 83.2775 27.3685C83.2775 27.6593 83.3564 27.9037 83.514 28.1021C83.6716 28.3006 83.8882 28.4642 84.164 28.5932C84.4399 28.7225 84.7189 28.8182 85.0013 28.8805C85.2835 28.9429 85.7498 29.0298 86.3999 29.1409C87.2139 29.265 87.9513 29.415 88.6111 29.5915C89.271 29.768 89.8324 30.0021 90.2952 30.294C90.7582 30.586 91.1192 30.9738 91.3786 31.4577C91.3931 31.4849 91.4058 31.5139 91.4196 31.5418V26.4307C91.4197 26.4304 91.4014 26.3299 91.2817 26.3299ZM67.0096 25.2402C66.9512 25.2586 66.8945 25.2782 66.8409 25.3001L67.0096 25.285V25.2402ZM72.9367 24.7573C72.9298 24.7571 72.9264 24.757 72.9207 24.7568C72.9296 24.7571 72.9367 24.7573 72.9367 24.7573ZM89.1184 37.5176C88.2516 37.9861 87.224 38.2698 86.0356 38.3684C84.6107 38.4869 83.4354 38.3136 82.5095 37.8487C81.8529 37.5134 81.3193 37.0375 80.9089 36.4207C80.4985 35.8039 80.2934 35.1883 80.2934 34.5739C80.2934 34.2169 80.4165 33.9013 80.6626 33.6264C80.9088 33.3516 81.2223 33.1983 81.6032 33.1666C81.9119 33.141 82.1728 33.2184 82.3862 33.3988C82.5995 33.5794 82.7817 33.8583 82.9329 34.2355C83.1165 34.6828 83.3153 35.0529 83.5287 35.3456C83.7421 35.6386 84.0423 35.8696 84.4299 36.0388C84.8172 36.2082 85.3261 36.2667 85.9566 36.2143C86.8233 36.1422 87.5275 35.8806 88.0692 35.4292C88.6111 34.9778 88.8818 34.4483 88.8818 33.8403C88.8818 33.3582 88.7357 32.9788 88.4436 32.7024C88.1513 32.426 87.7738 32.2277 87.3109 32.1077C86.8479 31.9876 86.229 31.8705 85.4543 31.7564C84.4166 31.5984 83.5484 31.3846 82.8491 31.1157C82.1498 30.8467 81.5949 30.4468 81.1846 29.9159C80.774 29.385 80.5689 28.7002 80.5689 27.861C80.5689 27.0615 80.7855 26.3333 81.2191 25.6762C81.6524 25.0192 82.2794 24.4896 83.1002 24.0877C83.3301 23.9751 83.5727 23.876 83.8253 23.7878L72.9365 24.7573C73.3352 24.7704 73.7034 24.8057 74.0389 24.8653C74.748 24.9915 75.3915 25.2849 75.9693 25.7456C77.4729 26.9158 78.2247 28.8224 78.2247 31.4652C78.2247 32.3373 78.1491 33.1399 77.9982 33.8725C77.8472 34.6053 77.6141 35.2739 77.299 35.8782C76.9837 36.4825 76.5799 37.0332 76.0874 37.5299C75.6998 37.9125 75.2764 38.2284 74.8169 38.478C74.3572 38.7278 73.8631 38.9175 73.3344 39.0471C72.8058 39.1769 72.21 39.2694 71.5469 39.3246L67.7351 39.6414C67.2032 39.6856 66.8026 39.638 66.5336 39.4984C66.2643 39.359 66.0886 39.1455 66.0065 38.8583C65.9244 38.5712 65.8834 38.193 65.8834 37.7239V27.0693C65.8834 26.435 66.0246 25.9641 66.307 25.6566C66.4438 25.5076 66.6222 25.3892 66.8406 25.3002L62.2674 25.7074C62.2775 25.7175 62.2885 25.7264 62.2985 25.7369C62.5412 25.9977 62.6627 26.4088 62.6627 26.9703V38.3978C62.6627 39.6731 62.1374 40.3543 61.0869 40.4416C60.8243 40.4635 60.5879 40.4449 60.3778 40.3866C60.1676 40.328 59.9706 40.2238 59.7869 40.0739C59.6029 39.9241 59.4322 39.7451 59.2748 39.5366C59.1171 39.3283 58.9596 39.1152 58.802 38.897L53.3159 30.8888V39.4025C53.3159 39.9574 53.1878 40.3878 52.9318 40.693C52.6757 40.9983 52.3472 41.1678 51.9469 41.2011C51.5332 41.2354 51.2014 41.1193 50.9521 40.8525C50.7024 40.5858 50.5778 40.1784 50.5778 39.63V28.4204C50.5778 27.9447 50.6303 27.5671 50.7353 27.2873C50.8248 27.0664 50.9575 26.8705 51.1317 26.6987L43.0277 27.4204C43.1358 27.5103 43.2314 27.612 43.314 27.7256C43.4814 27.9562 43.6225 28.2072 43.7374 28.4783C43.8523 28.7497 43.9985 29.1124 44.1757 29.5669L47.948 38.6292C48.2436 39.3183 48.3914 39.8247 48.3914 40.1485C48.3914 40.4855 48.2517 40.806 47.9727 41.11C47.6937 41.4139 47.3572 41.5824 46.9632 41.6151C46.7333 41.6343 46.5363 41.6092 46.3723 41.5403C46.2081 41.4713 46.0703 41.3707 45.9586 41.2378C45.8469 41.105 45.7271 40.8969 45.5991 40.6134C45.471 40.3303 45.361 40.0799 45.2691 39.8628L44.5797 38.0966L38.7095 38.5843L38.02 40.5049C37.7507 41.2542 37.5209 41.7639 37.3306 42.0339C37.14 42.3039 36.8282 42.4573 36.3948 42.4932C36.027 42.5237 35.7021 42.4153 35.4198 42.1679C35.1374 41.9204 34.9963 41.6249 34.9963 41.2813C34.9963 41.0831 35.0291 40.8756 35.0947 40.6586C35.1603 40.4418 35.2687 40.1386 35.4198 39.7496L39.1133 30.0072C39.2182 29.7276 39.3447 29.3918 39.4924 28.9995C39.6403 28.6074 39.7977 28.2788 39.9652 28.0137C40.0441 27.8889 40.135 27.7742 40.2371 27.6687L30.7615 28.5125C30.8419 28.5362 30.9209 28.5617 30.9974 28.5904C31.4504 28.7445 31.8509 28.9853 32.199 29.3131C32.547 29.641 32.8112 30.0338 32.9919 30.4911C33.1724 30.9486 33.2628 31.4415 33.2628 31.9701C33.2628 33.0537 32.9589 33.9445 32.3516 34.6426C31.7441 35.3407 30.8233 35.8763 29.589 36.2498C30.1076 36.4842 30.6035 36.8528 31.0762 37.3551C31.549 37.8577 31.9708 38.3992 32.3419 38.9794C32.7127 39.56 33.0018 40.0877 33.2086 40.5626C33.4155 41.0378 33.5188 41.3679 33.5188 41.5527C33.5188 41.7444 33.4581 41.9394 33.3366 42.1379C33.215 42.3362 33.0493 42.4987 32.8392 42.6251C32.629 42.7516 32.3862 42.8263 32.1104 42.8493C31.782 42.8766 31.5061 42.8217 31.283 42.685C31.0596 42.5484 30.8677 42.3676 30.7069 42.1432C30.5458 41.9188 30.3276 41.5867 30.0518 41.1471L28.8798 39.282C28.4595 38.5968 28.0836 38.0796 27.7521 37.7306C27.4204 37.3815 27.0838 37.1518 26.7425 37.0414C26.401 36.9309 25.9708 36.8974 25.4522 36.9404L24.4279 37.0256V41.6938C24.4279 42.3082 24.2933 42.7721 24.0241 43.0851C23.7548 43.3983 23.4036 43.5728 22.9702 43.6088C22.5039 43.6476 22.1429 43.5256 21.8868 43.2429C21.6307 42.9604 21.5027 42.525 21.5027 41.9369V30.7572C21.5027 30.1228 21.6438 29.6519 21.9262 29.3443C21.9422 29.3269 21.9608 29.3113 21.9778 29.2947L16.197 29.8095C16.3357 29.8599 16.4697 29.9178 16.5977 29.9853C16.9391 30.1618 17.2412 30.3961 17.5039 30.688C17.7664 30.9802 17.9668 31.3104 18.1047 31.6787C18.2426 32.0473 18.3116 32.443 18.3116 32.8658C18.3116 34.3195 17.5891 35.4432 16.1447 36.2372C18.0423 36.6874 18.9912 37.7914 18.9912 39.5488C18.9912 40.3615 18.7843 41.1106 18.3707 41.7957C17.9569 42.481 17.3988 43.0081 16.6963 43.3769C16.2564 43.5985 15.7508 43.7711 15.1795 43.8944C14.6082 44.018 13.9417 44.1113 13.18 44.1746L8.76747 44.5412C8.13042 44.5941 7.67572 44.4882 7.40336 44.2233C7.37712 44.1978 7.35245 44.17 7.32871 44.1411V44.7165C7.32871 44.7165 7.38329 44.8225 7.48951 44.8505C11.1084 45.8052 74.5997 62.5556 74.5997 62.5556L91.4197 35.8804V35.0624C91.3282 35.2833 91.2208 35.4989 91.0932 35.7083C90.6434 36.4463 89.9851 37.0492 89.1184 37.5176ZM91.443 35.0062C91.4371 35.0206 91.4305 35.0365 91.4231 35.0542C91.4272 35.0444 91.4345 35.0265 91.443 35.0062ZM97.0509 7.89741C96.1522 7.20093 95.048 6.90844 93.7693 7.02488C92.1681 7.17081 90.9616 7.38202 90.1643 7.66009C89.5955 7.87877 89.5342 8.30656 89.5342 8.47986V9.54053C89.5342 9.74627 89.5883 9.91589 89.6936 10.0445C89.8286 10.2074 90.0303 10.2851 90.2622 10.264C90.3006 10.2605 90.3937 10.244 90.4314 10.2326C91.0491 10.0431 92.1722 9.87472 93.7694 9.72911C94.1811 9.69162 94.5351 9.81355 94.8315 10.1041C95.1295 10.3788 95.2791 10.72 95.2791 11.1161V11.8176L91.7143 12.1425C90.4332 12.2593 89.3211 12.7619 88.4061 13.6382C87.4934 14.5113 87.0302 15.5738 87.0302 16.7968C87.0302 18.036 87.5021 19.0303 88.4329 19.7528C89.3307 20.4459 90.4344 20.7399 91.7143 20.6234L97.6436 20.0829C98.1049 20.0409 98.4272 19.6873 98.4272 19.2249V10.8291C98.4272 9.60802 97.951 8.59357 97.0509 7.89741ZM95.2789 17.5714L91.7142 17.8963C91.2867 17.9353 90.921 17.8181 90.6259 17.5444C90.3286 17.2695 90.178 16.9228 90.178 16.5098C90.178 16.1134 90.3286 15.7447 90.6259 15.4178C90.921 15.0923 91.2867 14.908 91.7142 14.8691L95.2789 14.544V17.5714ZM24.4279 34.9146L27.0478 34.697C27.7504 34.6386 28.3414 34.5285 28.8207 34.3662C29.3 34.2042 29.6661 33.9657 29.9189 33.6506C30.1716 33.3357 30.2981 32.9203 30.2981 32.4049C30.2981 32.002 30.1961 31.6552 29.9928 31.3648C29.7892 31.0745 29.5068 30.8684 29.1457 30.7464C28.8042 30.6295 28.1312 30.6126 27.1265 30.6961L24.4278 30.9202V34.9146H24.4279ZM15.2582 38.0453C14.7461 37.7576 13.981 37.6558 12.9634 37.7404L9.91995 37.9933V42.2351L13.0619 41.9741C15.0382 41.8099 16.0266 41.011 16.0266 39.577C16.0265 38.8437 15.7704 38.3332 15.2582 38.0453ZM15.8888 27.5358L17.4175 27.3964C17.9015 27.3522 18.2264 27.0062 18.2264 26.536V18.1403C18.2264 17.7473 18.3802 17.3673 18.6743 17.0242C18.9691 16.6989 19.335 16.5146 19.7626 16.4757L21.8187 16.2882C22.2303 16.2508 22.5833 16.3728 22.8802 16.6633C23.1776 16.9381 23.3276 17.2791 23.3276 17.6752V26.071C23.3276 26.541 23.6533 26.8278 24.1374 26.7838L25.693 26.6419C26.1538 26.6 26.4761 26.2462 26.4761 25.784V17.3882C26.4761 16.1382 26.0014 15.1513 25.0733 14.459C24.1752 13.7624 23.0803 13.469 21.8187 13.584L19.7626 13.7714C18.4965 13.8869 17.3852 14.3797 16.4553 15.2446C15.5551 16.1037 15.0789 17.2045 15.0789 18.4273V26.8231C15.079 27.293 15.4047 27.5799 15.8888 27.5358ZM16.197 29.8095C16.1908 29.8072 16.1876 29.8061 16.1828 29.8043C16.1907 29.8071 16.197 29.8095 16.197 29.8095ZM9.91985 35.8822L12.5989 35.6597C13.3278 35.5991 13.8907 35.4829 14.2881 35.3111C14.6853 35.1394 14.989 34.8499 15.1991 34.4426C15.3632 34.1513 15.4454 33.834 15.4454 33.4904C15.4454 32.757 15.1859 32.2914 14.6673 32.0932C14.1486 31.8951 13.3573 31.8403 12.2936 31.9286L9.91995 32.1258V35.8822H9.91985ZM12.1912 27.0863V18.6905C12.1912 17.4695 11.7151 16.455 10.8144 15.7589C9.91566 15.0624 8.81096 14.7699 7.5329 14.8863C5.93157 15.0323 4.72513 15.2435 3.92719 15.5215C3.35863 15.7403 3.29757 16.168 3.29757 16.3413V17.402C3.29757 17.6077 3.35173 17.7773 3.45649 17.906C3.59157 18.0689 3.79367 18.1466 4.02557 18.1254C4.06373 18.1219 4.15699 18.1054 4.19432 18.094C4.81296 17.9044 5.93554 17.7362 7.5329 17.5906C7.94401 17.5531 8.29844 17.675 8.59548 17.9656C8.89241 18.2404 9.04233 18.5814 9.04233 18.9775V19.6792L5.47792 20.004C4.19735 20.1207 3.0847 20.6234 2.17017 21.4995C1.25649 22.3727 0.793213 23.4352 0.793213 24.6581C0.793213 25.8974 1.26548 26.8926 2.19684 27.614C3.09411 28.3072 4.19787 28.6013 5.47792 28.4846L11.4072 27.9442C11.8689 27.9022 12.1912 27.5485 12.1912 27.0863ZM9.04223 25.4328L5.47781 25.7578C5.05029 25.7967 4.68384 25.6796 4.38952 25.4059C4.09154 25.1311 3.94162 24.7842 3.94162 24.3712C3.94162 23.9748 4.09154 23.6062 4.38952 23.2793C4.68384 22.9538 5.05029 22.7695 5.47781 22.7305L9.04223 22.4056V25.4328Z" fill="#02A6E1"/>
</svg>
