<svg width="218" height="70" viewBox="0 0 218 70" fill="none" xmlns="http://www.w3.org/2000/svg">
<path d="M62.9065 33.7882V50.5293H69.5712C77.8057 50.5293 78.7835 50.4777 81.2024 49.8844C84.8564 48.9816 87.8671 47.047 89.9257 44.2869C90.8264 43.0745 91.5983 41.6042 92.1387 40.1081C93.5283 36.1614 93.3996 30.7186 91.8299 26.7719C89.8743 21.845 86.0144 18.698 80.5076 17.5114C78.5519 17.0987 78.6034 17.0987 70.4719 17.0729L62.9065 17.0471V33.7882ZM78.5005 23.1348C81.2024 23.7023 83.1323 24.8631 84.5476 26.7203C86.9407 29.8931 87.3782 35.5939 85.4997 39.3084C84.1102 42.0427 81.9486 43.642 78.5777 44.3901C77.8829 44.5448 77.6255 44.5706 73.6113 44.5964L69.3654 44.6222V33.7624V22.9026L73.5341 22.9284C77.4969 22.9542 77.7285 22.98 78.5005 23.1348ZM104.387 27.4426C103.024 27.5974 101.66 28.0101 100.553 28.5518C98.6491 29.4804 97.1051 31.1055 96.256 33.066C95.9472 33.7624 95.7156 34.4589 95.7928 34.5105C95.8185 34.5363 96.925 34.8458 98.2888 35.207C99.6527 35.5681 100.811 35.8776 100.888 35.9034C100.991 35.9292 101.042 35.8003 101.222 35.3359C101.891 33.3239 103.564 32.1889 105.906 32.1889C107.475 32.1889 108.659 32.5758 109.483 33.4271C110.28 34.2009 110.512 34.9232 110.589 36.5225C110.615 37.5027 110.615 37.6059 110.512 37.6059C110.435 37.6059 109.817 37.4769 109.122 37.2964C107.012 36.8063 106.523 36.7289 104.748 36.7289C102.56 36.7289 101.171 36.9868 99.7299 37.6575C97.4911 38.7151 96.2817 40.4434 95.9729 42.9971C95.7156 45.2929 96.4103 47.4081 97.98 48.9042C99.7556 50.5809 102.174 51.2516 105.031 50.8647C107.475 50.5293 109.251 49.4717 110.486 47.6145L110.846 47.0728L110.872 48.801L110.898 50.5293H113.677H116.456L116.43 42.636L116.405 34.7426L116.199 33.943C115.298 30.3317 113.034 28.3454 108.891 27.5716C108.17 27.4684 105.056 27.3652 104.387 27.4426ZM107.655 41.1141C108.016 41.1915 108.813 41.4236 109.457 41.63C110.743 42.0169 110.666 41.9137 110.538 42.8423C110.306 44.3901 109.122 45.654 107.45 46.1183C106.858 46.2731 105.314 46.3505 104.619 46.2215C103.59 46.041 102.715 45.4735 102.329 44.6996C102.097 44.2353 102.046 43.3325 102.226 42.765C102.483 41.9137 103.307 41.2688 104.387 41.0109C105.108 40.8303 106.806 40.8819 107.655 41.1141ZM131.947 27.52C129.811 27.9069 127.778 29.0677 126.517 30.6154C126.286 30.8734 126.08 31.1055 126.054 31.1055C126.029 31.1313 125.977 30.409 125.977 29.4804V27.8295H123.044H120.11V43.9257V59.9704H123.147H126.209L126.234 53.8053L126.26 47.6403L126.543 48.053C127.881 49.9876 130.583 51.0968 133.62 50.9678C137.248 50.8131 140.259 49.2138 142.137 46.4279C144.839 42.4038 144.788 35.8518 141.983 31.7504C141.468 31.0023 140.465 29.9447 139.718 29.403C138.663 28.6034 137.171 27.9327 135.704 27.5974C134.958 27.4168 132.719 27.391 131.947 27.52ZM133.62 32.8596C135.189 33.2981 136.553 34.4331 137.299 35.9292C137.866 37.0642 138.123 38.6635 137.994 40.1081C137.737 42.7134 136.219 44.7512 133.954 45.4993C133.414 45.6798 133.157 45.7314 132.307 45.7572C131.046 45.783 130.352 45.654 129.271 45.1123C128.653 44.8028 128.447 44.648 127.856 44.0547C127.238 43.4356 127.109 43.2551 126.775 42.5586C126.132 41.243 125.926 39.9533 126.08 38.483C126.389 35.4391 128.113 33.3755 130.815 32.7564C131.381 32.6274 132.976 32.679 133.62 32.8596ZM158.863 27.52C157.577 27.7521 156.213 28.3196 155.106 29.0677C154.54 29.4546 153.588 30.3575 153.202 30.8476L152.971 31.1571V29.5062V27.8553H150.011H147.052V43.9257V59.9704H150.14H153.228V53.8311V47.6919L153.511 48.053C154.566 49.4459 156.161 50.4004 158.143 50.7873C159.069 50.9678 161.257 50.9678 162.26 50.7873C164.473 50.3746 166.326 49.4201 167.844 47.8982C170.083 45.654 171.189 42.507 171.061 38.6893C170.932 35.1812 169.8 32.2921 167.69 30.2543C165.76 28.3712 163.289 27.391 160.51 27.4168C159.893 27.4168 159.198 27.4684 158.863 27.52ZM160.51 32.8596C162.749 33.4787 164.319 35.2843 164.808 37.7865C164.936 38.4572 164.911 40.2628 164.782 40.9335C164.267 43.2551 162.852 44.8544 160.742 45.5251C160.021 45.7572 158.477 45.8346 157.68 45.654C155.312 45.1381 153.588 43.3583 153.074 40.8561C152.919 40.1081 152.919 38.5087 153.048 37.7349C153.331 36.3162 153.846 35.3101 154.823 34.3299C155.673 33.5045 156.625 32.9886 157.808 32.7306C158.323 32.6274 159.97 32.7048 160.51 32.8596ZM183.464 27.4426C180.736 27.8553 178.703 28.8355 177.005 30.5638C175.178 32.3953 174.097 34.7169 173.763 37.4769C173.634 38.5603 173.711 40.7013 173.917 41.7332C174.637 45.3703 176.67 48.1304 179.81 49.6781C183.181 51.3548 187.813 51.4064 191.081 49.8071C192.444 49.1364 193.705 48.1046 194.606 46.8922C195.095 46.2473 196.073 44.4159 196.098 44.0805C196.124 43.9257 195.97 43.8484 193.654 42.9197C190.669 41.7332 190.926 41.8105 190.926 41.9911C190.926 42.2233 190.514 43.0745 190.231 43.5388C189.64 44.4417 188.816 45.0607 187.838 45.3961C186.166 45.9636 184.287 45.8088 182.666 45.0092C182.1 44.7254 181.843 44.5448 181.328 44.0289C180.788 43.513 180.633 43.3067 180.35 42.6876C179.99 41.9137 179.887 41.5526 179.784 40.8045L179.733 40.3144L187.427 40.2886L195.172 40.3144L195.275 39.7727C195.326 39.4374 195.378 38.6377 195.378 37.6059C195.378 36.1872 195.352 35.8776 195.224 35.207C194.323 31.1055 191.724 28.5518 187.581 27.649C186.963 27.52 186.5 27.4942 185.265 27.4684C184.39 27.4426 183.592 27.4426 183.464 27.4426ZM186.526 32.5243C187.658 32.808 188.687 33.5819 189.125 34.4073C189.331 34.7942 189.511 35.4907 189.511 35.9034V36.2388H184.647C181.971 36.2388 179.784 36.213 179.784 36.213C179.784 36.1872 179.835 36.0066 179.938 35.7745C180.813 33.1433 183.592 31.7762 186.526 32.5243ZM209.402 27.52C207.884 27.8295 206.597 28.7324 205.774 30.0737L205.388 30.6928V29.2741V27.8553H202.351H199.315V39.2052V50.5551H202.351H205.388L205.414 42.765C205.439 35.0522 205.439 35.0006 205.594 34.5105C205.825 33.8398 206.186 33.2981 206.649 32.9628C207.163 32.5758 207.627 32.4211 208.296 32.3695C209.737 32.2663 210.946 33.0402 211.306 34.3041C211.409 34.6395 211.409 34.9232 211.384 35.5939C211.358 36.084 211.306 36.5741 211.281 36.6773L211.229 36.8837H214.111H216.993L217.071 36.4967C217.379 35.1296 217.379 33.1433 217.071 32.0083C216.427 29.532 214.6 27.8295 212.13 27.4426C211.487 27.3652 210.02 27.391 209.402 27.52Z" fill="#8422E0"/>
<path d="M4.5939 53.4759C-0.569682 47.5816 -0.34221 33.5826 0.796814 27.6883C1.92654 21.4774 9.0314 9.90408 25.4433 10.0006C41.4233 9.90408 48.3412 21.4774 49.4412 27.6883C50.5503 33.5826 50.7717 47.5816 45.744 53.4759C38.2441 62.2685 12.1317 62.0804 4.5939 53.4759Z" fill="url(#paint0_linear_2770_137516)"/>
<path d="M24.7425 38.4902C22.8682 42.4955 18.8025 45.2701 14.088 45.2701C7.59469 45.2701 2.3313 40.0065 2.3313 33.5134C2.3313 27.0204 7.59469 21.7567 14.088 21.7567C18.8025 21.7567 22.8682 24.5313 24.7425 28.5367C26.6168 24.5313 30.6826 21.7567 35.397 21.7567C41.8904 21.7567 47.1538 27.0204 47.1538 33.5134C47.1538 40.0065 41.8904 45.2701 35.397 45.2701C30.6826 45.2701 26.6168 42.4955 24.7425 38.4902Z" fill="white"/>
<path d="M18.1298 31.309C19.4494 31.309 20.6219 30.6762 21.3596 29.6974C21.8791 30.7352 22.1712 31.9064 22.1712 33.146C22.1712 37.4071 18.7168 40.8613 14.4558 40.8613C10.1949 40.8613 6.74048 37.4071 6.74048 33.146C6.74048 28.8849 10.1949 25.4307 14.4558 25.4307L14.529 25.431C14.247 25.9821 14.0884 26.6063 14.0884 27.2676C14.0884 29.4996 15.8981 31.309 18.1298 31.309Z" fill="#7320D3"/>
<path d="M39.4388 31.309C40.7584 31.309 41.931 30.6762 42.6686 29.6974C43.1881 30.7352 43.4802 31.9064 43.4802 33.146C43.4802 37.4071 40.0258 40.8613 35.7649 40.8613C31.5039 40.8613 28.0495 37.4071 28.0495 33.146C28.0495 28.8849 31.5039 25.4307 35.7649 25.4307L35.838 25.431C35.556 25.9821 35.3975 26.6063 35.3975 27.2676C35.3975 29.4996 37.2072 31.309 39.4388 31.309Z" fill="#7320D3"/>
<defs>
<linearGradient id="paint0_linear_2770_137516" x1="25.1102" y1="10" x2="25.1102" y2="60" gradientUnits="userSpaceOnUse">
<stop stop-color="#F03C7C"/>
<stop offset="1" stop-color="#F6A3EC"/>
</linearGradient>
</defs>
</svg>
