<svg width="191" height="70" viewBox="0 0 191 70" fill="none" xmlns="http://www.w3.org/2000/svg">
<path d="M34.205 31.5042L24.7774 22.0413L15.3497 31.5042L9.85153 25.9816L24.7774 11L39.7032 25.9816L34.205 31.5042Z" fill="#F1BC11"/>
<path d="M5.92702 29.9242L0.427246 35.4445L5.92702 40.9648L11.4267 35.4445L5.92702 29.9242Z" fill="#F1BC11"/>
<path d="M38.1329 35.4456L43.6327 29.9253L49.1324 35.4456L43.6327 40.9659L38.1329 35.4456Z" fill="#F1BC11"/>
<path d="M15.3497 39.3886L24.7774 48.8476L34.205 39.3886L39.7032 44.9073L24.7774 59.8889L9.85153 44.9073L15.3497 39.3886Z" fill="#F1BC11"/>
<path d="M19.2814 35.4456L24.7812 29.9253L30.2809 35.4456L24.7812 40.9659L19.2814 35.4456Z" fill="#F1BC11"/>
<path fill-rule="evenodd" clip-rule="evenodd" d="M60.135 35.4445H69.1067C73.3607 35.4445 76.1658 33.7148 76.1658 30.2554V30.2011C76.1658 27.657 74.8174 26.385 72.6343 25.5473C73.9828 24.7872 75.1149 23.6004 75.1149 21.4635V21.4092C75.1149 18.454 72.7541 16.5149 68.8903 16.5149H60.135V35.4445ZM68.2876 20.172C70.0224 20.172 70.9922 20.8663 70.9922 22.1111L70.9884 22.1771C70.9884 23.5849 69.8292 24.1782 67.9978 24.1782H64.1919V20.172H68.2876ZM68.9715 27.6299C71.1004 27.6299 72.0432 28.4133 72.0432 29.6853V29.7396C72.0432 31.1435 70.9381 31.7951 69.1067 31.7951H64.1765V27.6299H68.9715Z" fill="#F1BC11"/>
<path d="M80.7174 16.5149V35.4445H84.8671V16.5149H80.7174Z" fill="#F1BC11"/>
<path d="M94.5073 23.4026L103.641 35.4445H107.165V16.5149H103.069V28.1689L94.233 16.5149H90.4078V35.4251H94.5073V23.4026Z" fill="#F1BC11"/>
<path fill-rule="evenodd" clip-rule="evenodd" d="M124.092 31.1784L125.816 35.4445H130.174L122.091 16.3792H118.246L110.163 35.4445H114.39L116.117 31.1784H124.092ZM117.597 27.5213L120.105 21.382L122.62 27.5213H117.597Z" fill="#F1BC11"/>
<path d="M137.268 23.4026L146.402 35.4445H149.93V16.5149H145.834V28.1689L136.997 16.5149H133.172V35.4251H137.268V23.4026Z" fill="#F1BC11"/>
<path d="M159.89 35.0668C161.074 35.55 162.342 35.7893 163.619 35.7703C167.259 35.7703 169.411 34.4711 171.362 32.3884L168.723 29.7125C167.243 31.0621 165.922 31.927 163.766 31.927C160.532 31.927 158.295 29.2238 158.295 25.9777V25.9234C158.295 22.6812 160.586 20.0286 163.766 20.0286C165.651 20.0286 167.135 20.8391 168.588 22.1655L171.231 19.1094C169.477 17.3797 167.348 16.1891 163.793 16.1891C158.001 16.1891 153.959 20.5987 153.959 25.9777V26.0321C153.935 27.3141 154.168 28.5879 154.644 29.7777C155.12 30.9675 155.83 32.0489 156.731 32.9576C157.633 33.8662 158.707 34.5836 159.89 35.0668Z" fill="#F1BC11"/>
<path d="M174.696 16.5149V35.4445H189.054V31.7408H178.815V27.7656H187.702V24.058H178.815V20.2186H188.935V16.5149H174.696Z" fill="#F1BC11"/>
<path d="M141.143 40.9594H138.798V54.3469H148.16V52.2062H141.143V40.9594Z" fill="#F1BC11"/>
<path fill-rule="evenodd" clip-rule="evenodd" d="M161.629 54.3586H164.11L158.233 40.8624H156.058L150.185 54.3586H152.588L153.959 51.1242H160.273L161.629 54.3586ZM154.821 49.0377L157.108 43.678L159.415 49.0377H154.821Z" fill="#F1BC11"/>
<path fill-rule="evenodd" clip-rule="evenodd" d="M175.075 47.3933C176.068 46.8736 176.984 46.0321 176.984 44.3877C176.984 42.2818 175.288 40.9594 172.595 40.9594H166.606V54.3586H172.788C175.763 54.3586 177.726 53.0788 177.726 50.6665C177.726 48.8282 176.64 47.9285 175.075 47.3933ZM172.293 43.0536C173.798 43.0536 174.637 43.6843 174.639 44.7717C174.636 46.0139 173.625 46.6061 172.119 46.6138H168.916V43.0536H172.293ZM172.633 48.6072C174.482 48.6072 175.378 49.2612 175.38 50.4222C175.378 51.6452 174.409 52.2722 172.807 52.2799H168.916V48.6072H172.633Z" fill="#F1BC11"/>
<path d="M190.163 50.5308C190.163 48.2931 188.695 47.277 185.874 46.5866C183.317 45.9739 182.706 45.5085 182.706 44.4614C182.706 43.5617 183.51 42.8558 184.881 42.8558C186.207 42.9044 187.48 43.388 188.506 44.2326L189.765 42.4524C188.401 41.3309 186.683 40.7342 184.92 40.7693C182.27 40.7693 180.361 42.3478 180.361 44.6747C180.361 47.1412 181.964 48.0061 184.804 48.6925C187.285 49.2665 187.818 49.7862 187.818 50.7596C187.818 51.7951 186.902 52.466 185.453 52.466C183.796 52.466 182.517 51.8339 181.238 50.7247L179.828 52.4079C181.351 53.7963 183.338 54.5615 185.395 54.5525C188.2 54.5525 190.163 53.0594 190.163 50.5308Z" fill="#F1BC11"/>
<path d="M133.246 46.5634H60.135V48.7934H133.246V46.5634Z" fill="#F1BC11"/>
</svg>
