<svg width="260" height="70" viewBox="0 0 260 70" fill="none" xmlns="http://www.w3.org/2000/svg">
<path d="M139.149 41.19C138.811 42.3222 138.358 43.3977 137.851 44.3601C137.682 44.6997 137.513 44.9827 137.343 45.3223C136.441 46.6243 134.861 47.53 133.169 47.53C131.646 47.53 130.236 46.8507 129.333 45.7752C129.276 45.7185 129.22 45.6619 129.164 45.6054C128.205 44.5298 126.852 43.8505 125.328 43.8505C124.933 43.8505 124.595 43.9071 124.257 43.9637V54.5493C123.128 54.7756 121.887 54.8889 120.703 54.8889C109.985 54.8889 101.354 46.1715 101.354 35.4727C101.354 24.7741 109.928 16 120.647 16C122.677 16 124.651 16.3396 126.512 16.9057L120.758 22.6796L124.257 26.1892L136.554 38.5295L137.061 39.039L139.149 41.19Z" fill="url(#paint0_linear_2770_137505)"/>
<path d="M48.2817 45.1525L48.2728 45.2091V45.1525H48.2817Z" fill="white"/>
<path d="M48.2817 45.1525L51.4317 25.1137C51.7137 23.5287 52.8419 22.6796 54.2522 22.6796C55.4932 22.6796 56.6214 23.3022 57.0162 24.7174L61.7547 41.5296C61.8674 42.0391 61.9803 42.2089 62.2624 42.2089C62.5443 42.2089 62.6572 41.9824 62.77 41.5296L67.5084 24.774C67.9034 23.3589 69.0315 22.6796 70.2726 22.6796C71.6264 22.6796 72.7546 23.5287 73.0366 25.1703L75.9136 45.0958H73.8264L71.1186 25.7364C71.0059 25.0004 70.8367 24.5476 70.2162 24.5476C69.7649 24.5476 69.4264 24.9439 69.2571 25.6231L64.3495 42.492C64.0675 43.5109 63.2213 44.0769 62.2624 44.0769C61.3598 44.0769 60.4573 43.5675 60.1752 42.5486L55.2675 25.5665C55.042 24.8873 54.8163 24.5476 54.365 24.5476C53.9137 24.5476 53.5188 24.9439 53.406 25.7364L50.4163 45.1525H48.2817Z" fill="white"/>
<path d="M2.52435 40.0013L0.719238 40.9069C1.96025 43.8505 5.00639 45.4356 8.5038 45.4356C12.6781 45.4356 15.9499 42.9448 16.0627 39.039C16.0627 34.567 12.3396 33.6048 9.01147 32.8688L8.98573 32.8634C6.06231 32.2428 3.37051 31.6715 3.37051 28.7366C3.37051 26.4156 5.62688 24.7174 8.22173 24.7174C10.8166 24.7174 12.7345 25.9062 13.7499 28.0572L15.4986 27.1515C14.314 24.2646 11.4371 22.7362 8.27813 22.7362C4.44229 22.7362 1.22691 25.3967 1.22691 28.8498C1.22691 33.265 5.00639 34.2274 8.33455 34.9632L8.35725 34.9681C11.2254 35.5889 13.8626 36.1597 13.8626 39.0955C13.8626 41.8127 11.5499 43.3976 8.5038 43.3976C5.6833 43.3976 3.48331 42.2089 2.52435 40.0013Z" fill="white"/>
<path d="M19.7295 23.0759V45.1525H21.8166V35.1331H34.9037V45.2091H36.9909V23.0759H34.9037V33.2085H21.8166V23.0759H19.7295Z" fill="white"/>
<path d="M44.4932 23.0759V45.2091H42.4061V23.0759H44.4932Z" fill="white"/>
<path fill-rule="evenodd" clip-rule="evenodd" d="M83.7544 25.3967C84.3186 23.5853 85.6159 22.7362 87.3083 22.7362C88.9442 22.7362 90.298 23.5853 90.8621 25.3967L97.0672 45.2091H94.9236L93.062 39.039L81.6673 39.0955L79.6929 45.2091H77.5494L83.7544 25.3967ZM82.175 37.0577H92.3851L89.0006 26.0194C88.7185 25.1137 88.1544 24.6608 87.3083 24.6608C86.4057 24.6608 85.898 25.1137 85.6159 26.0194L82.175 37.0577Z" fill="white"/>
<path d="M154.436 22.7362C148.4 22.7362 143.436 27.7742 143.436 34.1142C143.436 40.5107 148.4 45.5488 154.436 45.6054C158.159 45.6054 161.43 43.7374 163.179 40.6806L161.487 39.6616C160.021 42.0957 157.369 43.5675 154.436 43.5675C149.584 43.5675 145.636 39.4352 145.636 34.1142C145.636 28.8498 149.641 24.7174 154.436 24.7174C157.369 24.7174 160.021 26.2458 161.487 28.6799L163.179 27.661C161.43 24.6042 158.159 22.7362 154.436 22.7362Z" fill="white"/>
<path fill-rule="evenodd" clip-rule="evenodd" d="M169.497 25.3967C170.061 23.5853 171.359 22.7362 173.051 22.7362C174.744 22.7362 176.041 23.5853 176.604 25.3967L182.809 45.2091H180.667L178.805 39.039L167.41 39.0955L165.436 45.2091H163.292L169.497 25.3967ZM167.917 37.0577H178.128L174.744 26.0194C174.462 25.1137 173.898 24.6608 173.051 24.6608C172.149 24.6608 171.641 25.1137 171.359 26.0194L167.917 37.0577Z" fill="white"/>
<path fill-rule="evenodd" clip-rule="evenodd" d="M185.969 23.0759V45.2657H188.056V38.4163H192.4C197.815 38.4163 201.82 36.0388 201.82 30.7177C201.82 25.5665 197.985 23.0759 192.344 23.0759H185.969ZM188.056 36.3785V25.0005H192.344C196.63 25.0005 199.62 26.7553 199.62 30.6611C199.62 34.7369 196.405 36.3785 192.344 36.3785H188.056Z" fill="white"/>
<path d="M206.841 23.0759V45.2091H204.753V23.0759H206.841Z" fill="white"/>
<path d="M218.066 25.0571H225.117V23.0759H208.984V25.0571H215.979V45.2091H218.066V25.0571Z" fill="white"/>
<path fill-rule="evenodd" clip-rule="evenodd" d="M229.912 25.3967C230.477 23.5853 231.774 22.7362 233.466 22.7362C235.158 22.7362 236.456 23.5853 237.02 25.3967L243.225 45.2091H241.025L239.164 39.0389L227.769 39.0955L225.851 45.2657H223.707L229.912 25.3967ZM228.333 37.0577H238.542L235.158 26.0194C234.876 25.1137 234.312 24.6608 233.466 24.6608C232.563 24.6608 232.056 25.1137 231.774 26.0194L228.333 37.0577Z" fill="white"/>
<path d="M259.979 43.2278H248.471V23.0759H246.384V43.1147C246.384 44.4166 246.891 45.2091 248.471 45.2091H259.979V43.2278Z" fill="white"/>
<defs>
<linearGradient id="paint0_linear_2770_137505" x1="103.34" y1="52.43" x2="132.408" y2="23.4626" gradientUnits="userSpaceOnUse">
<stop stop-color="#9CA9CB"/>
<stop offset="1" stop-color="#3D5166"/>
</linearGradient>
</defs>
</svg>
